<svg width="500" height="509" viewBox="0 0 500 509" fill="none" xmlns="http://www.w3.org/2000/svg">
<path d="M267.963 176.36C316.226 176.36 355.411 215.546 355.411 263.808C355.411 312.071 316.226 351.256 267.963 351.256C219.701 351.256 180.516 312.071 180.516 263.808C180.516 215.546 219.701 176.36 267.963 176.36Z" fill="#D5EBEB"/>
<path d="M39.2633 297.996C60.9327 276.327 96.1205 276.327 117.79 297.996C139.459 319.665 139.459 354.853 117.79 376.523C96.1205 398.192 60.9327 398.192 39.2633 376.523C17.5939 354.853 17.5939 319.665 39.2633 297.996Z" fill="#D5EBEB"/>
<path d="M424.688 133.087C450.193 133.087 470.901 153.795 470.901 179.3C470.901 204.805 450.193 225.513 424.688 225.513C399.183 225.513 378.475 204.805 378.475 179.3C378.475 153.795 399.183 133.087 424.688 133.087Z" fill="#D5EBEB"/>
<path d="M179.088 508.04C176.649 507.869 174.239 507.669 171.857 507.427C169.389 507.199 166.95 506.914 164.554 506.6C161.487 506.2 158.478 505.744 155.511 505.23C150.291 504.332 145.241 503.234 140.378 501.95C124.517 497.785 110.61 491.581 99.4993 483.094C93.4517 478.473 87.4611 473.595 81.6132 468.431C67.9063 456.365 54.8697 442.829 43.1025 427.596C62.1011 421.491 83.0395 420.707 103.693 426.455C117.842 430.406 130.508 437.038 141.305 445.682C144.97 448.591 148.394 451.743 151.589 455.081C159.975 463.81 166.765 473.908 171.7 484.877C173.682 489.256 175.365 493.777 176.735 498.413C177.676 501.565 178.475 504.788 179.102 508.04C179.102 508.04 178.46 504.788 179.088 508.04Z" fill="#D5EBEB"/>
<path d="M197.63 460.87C195.576 454.452 190.513 451.072 186.419 449.189C182.126 447.235 177.947 446.251 173.796 445.48C165.524 443.997 157.408 443.683 149.378 443.783C145.826 443.84 142.317 443.954 138.794 444.125C132.747 444.453 126.713 444.953 120.694 445.623C121.65 447.092 122.591 448.575 123.547 450.144C124.26 451.357 124.988 452.598 125.615 453.796C133.517 453.425 141.29 453.282 149.078 453.525H149.249C156.866 453.81 164.568 454.452 171.657 456.092C175.194 456.905 178.646 457.946 181.441 459.358C184.28 460.813 185.906 462.767 186.234 463.98C186.391 465.306 185.806 467.531 184.023 470.099C182.212 472.638 179.658 475.077 177.006 477.373C174.566 479.484 171.942 481.466 169.204 483.321C165.823 485.66 162.272 487.842 158.634 489.925C152.573 493.362 146.325 496.5 139.978 499.452C139.279 499.766 138.58 500.08 137.882 500.379C142.745 501.677 147.809 502.761 153.015 503.66C155.982 504.173 158.991 504.63 162.058 505.029C163.47 504.131 164.882 503.232 166.28 502.319C168.961 500.551 171.614 498.753 174.238 496.842C178.261 493.918 182.197 490.766 185.934 487.172C188.972 484.191 191.968 481.01 194.492 476.931C196.917 473.065 199.342 467.303 197.644 460.856C197.644 460.856 199.327 467.317 197.63 460.87Z" fill="#D5EBEB"/>
<path d="M500 319.683C496.634 348.167 488.389 375.053 473.841 398.131C467.822 407.673 460.733 416.573 452.46 424.66C448.096 428.911 443.289 433.09 438.055 437.155C420.568 425.117 409.086 404.934 409.086 382.085C409.086 345.157 439.024 315.219 475.952 315.219C484.424 315.219 492.54 316.802 500 319.669C500 319.669 492.54 316.816 500 319.683Z" fill="#D5EBEB"/>
<path d="M323.515 7.11407V92.5507C297.899 89.1989 270.085 87.3732 241.06 87.3732C197.643 87.3732 157.021 91.4524 122.219 98.584V13.1331C157.021 6.0158 197.643 1.93652 241.06 1.93652C270.1 1.93652 297.899 3.76221 323.515 7.11407Z" fill="#D5EBEB"/>
<path d="M292.023 53.8399L196.431 54.2393C195.261 50.9302 198.755 47.0649 202.15 46.1806C205.545 45.2963 209.353 45.4532 212.22 43.442C218.168 39.2487 216.413 28.4799 222.775 24.9427C226.426 22.9173 231.147 24.4862 234.328 27.182C237.509 29.892 239.691 33.5719 242.486 36.667C245.296 39.7621 249.19 42.4008 253.341 41.9016C257.206 41.4452 260.544 38.3501 264.423 38.5925C269.13 38.8921 272.24 43.8985 276.804 45.1108C279.713 45.8811 282.837 44.9967 285.804 45.5387C288.771 46.095 293.763 51.3724 292.008 53.8257C292.008 53.8257 293.777 51.3867 292.023 53.8399Z" fill="white"/>
<path d="M180.798 51.4297V54.2395H176.262V51.4297H180.798Z" fill="white"/>
<path d="M216.698 51.4297V54.2395H183.822V51.4297H216.698Z" fill="white"/>
<path d="M196.788 36.1533V38.9632H192.252V36.1533H196.788Z" fill="white"/>
<path d="M232.688 36.1533V38.9632H199.812V36.1533H232.688Z" fill="white"/>
<path d="M483.026 150.33V250.315C483.026 235.367 465.183 221.846 436.414 212.161V112.19C465.183 121.875 483.026 135.382 483.026 150.33Z" fill="#D5EBEB"/>
<g opacity="0.7">
<path d="M483.026 149.546V249.531C483.026 259.13 475.666 268.145 462.772 275.918V175.919C475.666 168.131 483.026 159.131 483.026 149.532C483.026 149.532 483.026 159.145 483.026 149.546Z" fill="#D5EBEB"/>
</g>
<path d="M354.056 78.2021C354.37 82.3242 352.016 86.2038 348.208 87.8156C352.33 87.5018 356.21 89.8552 357.821 93.6635C357.508 89.5414 359.861 85.6618 363.669 84.0501C359.547 84.3639 355.668 82.0104 354.056 78.2021Z" fill="#D5EBEB"/>
<path d="M237.531 94.2065C237.881 98.2586 235.61 102.086 231.88 103.727C235.932 103.376 239.76 105.648 241.401 109.377C241.05 105.325 243.321 101.497 247.051 99.857C242.999 100.208 239.171 97.9361 237.531 94.2065Z" fill="#D5EBEB"/>
<path d="M401.569 253.805C401.674 255.027 400.989 256.182 399.864 256.676C401.087 256.571 402.241 257.256 402.736 258.381C402.63 257.159 403.315 256.004 404.44 255.509C403.218 255.615 402.064 254.93 401.569 253.805Z" fill="#D5EBEB"/>
<path d="M245.199 461.982C245.556 466.104 243.245 469.998 239.451 471.667C243.573 471.31 247.467 473.621 249.136 477.415C248.779 473.293 251.09 469.399 254.884 467.73C250.762 468.087 246.868 465.776 245.199 461.982Z" fill="#D5EBEB"/>
<path d="M422.321 47.3072C423.574 53.39 419.651 59.3485 413.553 60.5884C407.454 61.8283 401.511 57.9185 400.271 51.8199C399.019 45.7371 402.941 39.7786 409.04 38.5387C415.139 37.2988 421.081 41.2086 422.321 47.3072Z" fill="#DBDBDB"/>
<mask id="mask0_192_153" style="mask-type:luminance" maskUnits="userSpaceOnUse" x="363" y="0" width="95" height="94">
<path d="M363.839 10.2891L447.361 0.000163961L457.65 83.5218L374.128 93.8107L363.839 10.2891Z" fill="white"/>
</mask>
<g mask="url(#mask0_192_153)">
<mask id="mask1_192_153" style="mask-type:luminance" maskUnits="userSpaceOnUse" x="369" y="4" width="82" height="86">
<path d="M408.899 5.25671L381.187 17.2356C376.931 19.0821 373.971 23.0538 373.432 27.6615L369.993 57.2583C369.465 61.8359 371.403 66.3683 375.078 69.1347L398.853 87.0295C402.576 89.8332 407.535 90.4294 411.806 88.5811L439.505 76.6181C443.749 74.7876 446.697 70.8317 447.251 66.2365L450.799 36.4683C451.35 31.8447 449.38 27.2875 445.647 24.5139L421.79 6.77286C418.071 3.99753 413.143 3.42615 408.887 5.27261C408.887 5.27261 413.155 3.41025 408.899 5.25671Z" fill="white"/>
</mask>
<g mask="url(#mask1_192_153)">
<path d="M374.325 20.3214L369.153 64.7759L405.517 49.1875C408.589 47.875 410.722 45.011 411.119 41.6999L415.806 2.40687L374.325 20.3214Z" fill="#CA775D"/>
<path d="M369.152 64.7771L404.903 91.6875L446.384 73.7729L414.792 50.2879C412.118 48.3035 408.588 47.8761 405.518 49.2028L369.14 64.793L369.152 64.7771Z" fill="#C4DCDC"/>
<path d="M415.806 2.40672L411.129 41.6697C410.734 44.9949 412.145 48.2845 414.834 50.2814L446.396 73.7557L451.718 29.1104L415.806 2.40672Z" fill="#D5EBEB"/>
</g>
</g>
<path d="M382.52 34.0592L382.998 33.8566C382.751 32.3205 383.851 30.518 385.45 29.8468C385.668 29.7481 385.891 29.6919 386.115 29.6498C386.824 27.1195 388.801 24.7346 391.37 23.6565C394.948 22.1379 398.287 23.6954 398.842 27.148C401.327 26.0945 403.647 27.1884 404.026 29.5703C404.408 31.9664 402.71 34.748 400.224 35.8015L383.904 42.7269C381.418 43.7804 379.1 42.7006 378.719 40.3045C378.338 37.9084 380.034 35.1127 382.52 34.0592Z" fill="white"/>
<path d="M397.546 24.4463C396.164 23.7256 394.36 23.6604 392.49 24.4656C389.923 25.5579 387.946 27.9427 387.236 30.4589C387.025 30.4992 386.789 30.5713 386.586 30.6683C384.987 31.3395 383.889 33.1562 384.136 34.6922L383.643 34.8966C381.172 35.9483 379.461 38.7458 379.857 41.1402C379.967 41.802 380.21 42.3757 380.595 42.8169C379.637 42.3888 378.927 41.5277 378.733 40.3014C378.352 37.9053 380.05 35.1237 382.52 34.0578L383.012 33.8534C382.763 32.3032 383.851 30.5165 385.45 29.8454C385.682 29.7449 385.905 29.6887 386.114 29.6342C386.822 27.1039 388.801 24.7332 391.368 23.6409C393.813 22.6068 396.133 23.0108 397.548 24.4605C397.548 24.4605 396.132 22.9966 397.546 24.4463Z" fill="#DBDBDB"/>
<path d="M44.9088 297.472C45.1108 303.679 50.3154 308.558 56.5366 308.354C62.7578 308.151 67.6222 302.948 67.4044 296.728C67.2024 290.521 61.9978 285.643 55.7782 285.86C49.5711 286.062 44.6926 291.267 44.9104 297.487C44.9104 297.487 44.691 291.253 44.9088 297.472Z" fill="#52799C"/>
<mask id="mask2_192_153" style="mask-type:luminance" maskUnits="userSpaceOnUse" x="9" y="247" width="94" height="94">
<path d="M9.51807 257.302L93.1343 247.813L102.624 331.429L19.0076 340.918L9.51807 257.302Z" fill="white"/>
</mask>
<g mask="url(#mask2_192_153)">
<mask id="mask3_192_153" style="mask-type:luminance" maskUnits="userSpaceOnUse" x="13" y="253" width="86" height="83">
<path d="M47.4777 253.512L77.2201 258.692C81.7898 259.494 85.5949 262.665 87.1944 267.02L97.4463 294.997C99.0284 299.325 98.2019 304.184 95.2742 307.732L76.3323 330.682C73.3669 334.277 68.6834 336.014 64.0996 335.214L34.3729 330.046C29.819 329.257 26.0156 326.1 24.4177 321.759L14.0205 293.641C12.4052 289.274 13.2568 284.383 16.2396 280.815L35.2968 257.995C38.2654 254.429 42.9238 252.723 47.4935 253.525C47.4935 253.525 42.908 252.71 47.4777 253.512Z" fill="white"/>
</mask>
<g mask="url(#mask3_192_153)">
<path d="M84.6134 260.092L100.019 302.111L61.0209 295.441C57.7276 294.882 54.9846 292.595 53.8259 289.468L40.0967 252.354L84.6134 260.092Z" fill="#EBEBEB"/>
<path d="M100.019 302.111L71.537 336.622L27.0203 328.884L52.2583 298.674C54.3944 296.121 57.7276 294.881 61.0225 295.455L100.035 302.123L100.019 302.111Z" fill="#52799C"/>
<path d="M40.0968 252.354L53.8086 289.441C54.9689 292.582 54.3645 296.111 52.2158 298.68L27.0046 328.873L11.4096 286.702L40.0968 252.354Z" fill="#DBDBDB"/>
</g>
</g>
<path d="M72.2416 277.245C69.8504 277.171 67.37 275.3 66.6842 273.052C66.5049 272.484 66.4705 271.928 66.5592 271.444C65.778 272.15 65.4908 273.288 65.883 274.593C66.5687 276.84 69.0492 278.712 71.4262 278.787C73.1983 278.844 74.4089 277.874 74.6339 276.442C74.0792 276.993 73.2356 277.275 72.2432 277.259C72.2432 277.259 73.234 277.261 72.2416 277.245ZM80.1166 273.652C78.6769 268.935 73.4635 264.99 68.4653 264.84C65.1684 264.755 62.7921 266.331 61.9646 268.779C63.125 267.24 65.1169 266.325 67.6373 266.398C72.6323 266.52 77.8599 270.463 79.287 275.196C79.8028 276.831 79.8064 278.381 79.3337 279.655C79.6098 279.179 79.7777 278.887 79.787 278.843C80.5776 277.461 80.6851 275.626 80.0899 273.67C80.0899 273.67 80.7119 275.609 80.1166 273.652Z" fill="#CACACA"/>
<path d="M68.9519 270.641C71.3289 270.716 73.8094 272.588 74.4951 274.835C74.6744 275.404 74.7088 275.96 74.6202 276.443C75.3888 275.753 75.6901 274.614 75.2964 273.295C74.6107 271.047 72.1302 269.175 69.7532 269.101C67.9826 269.058 66.7705 270.013 66.5454 271.446C67.1018 270.909 67.9438 270.612 68.9503 270.627C68.9503 270.627 67.9454 270.626 68.9519 270.641ZM75.2042 287.028L65.4686 278.401C63.8523 276.933 62.5974 275.109 62.0163 273.151C61.5179 271.542 61.5349 270.048 61.9792 268.777C60.844 270.284 60.5055 272.361 61.215 274.692C61.8103 276.648 63.0494 278.46 64.6532 279.943L74.4029 288.569C74.5347 288.339 78.8921 280.566 79.0129 280.366C79.1321 280.152 79.2372 279.939 79.3264 279.713C78.1547 281.784 75.3141 286.858 75.22 287.041C75.22 287.041 75.2983 286.845 75.2042 287.028Z" fill="#CACACA"/>
<path d="M72.2431 277.259C69.8677 277.198 67.3714 275.314 66.6999 273.065C66.0141 270.817 67.3913 269.039 69.7683 269.113C72.1438 269.174 74.64 271.058 75.3116 273.307C75.9973 275.555 74.6201 277.333 72.2431 277.259ZM68.4668 264.854C63.4702 264.718 60.5901 268.432 62.0157 273.151C62.6109 275.108 63.8501 276.919 65.468 278.401L75.2036 287.028C75.3354 286.798 79.6928 279.026 79.8136 278.825C80.6058 277.458 80.6992 275.624 80.1023 273.654C78.6626 268.936 73.4633 264.99 68.4526 264.856C68.4526 264.856 73.4775 264.989 68.4668 264.854Z" fill="#CACACA"/>
<path d="M72.2431 277.259C69.8677 277.198 67.3714 275.314 66.6999 273.065C66.0141 270.817 67.3913 269.039 69.7683 269.113C72.1438 269.174 74.64 271.058 75.3116 273.307C75.9973 275.555 74.6201 277.333 72.2431 277.259ZM68.4668 264.854C63.4702 264.718 60.5901 268.432 62.0157 273.151C62.6109 275.108 63.8501 276.919 65.468 278.401L75.2036 287.028C75.3354 286.798 79.6928 279.026 79.8136 278.825C80.6058 277.458 80.6992 275.624 80.1023 273.654C78.6626 268.936 73.4633 264.99 68.4526 264.856C68.4526 264.856 73.4775 264.989 68.4668 264.854Z" fill="white"/>
<path d="M367.148 459.201C366.825 461.505 349.115 473.227 333.937 470.809C332.266 470.546 330.621 470.104 329.058 469.473C328.292 467.481 327.349 464.825 326.167 461.575C325.082 458.538 323.817 454.984 322.362 450.942C320.788 446.559 318.978 441.596 316.915 436.113C313.394 426.734 306.017 417.109 300.994 405.03L319.738 386.512C325.322 407.954 328.256 415.294 333.812 424.306C339.675 433.813 353.522 444.834 362.409 453.752C364.711 456.061 366.416 457.956 367.131 459.189C367.131 459.189 366.432 457.967 367.148 459.201Z" fill="#52799C"/>
<path d="M335.715 481.692L372.055 467.271C369.753 462.629 367.145 459.186 367.145 459.186L329.041 469.462C333.291 480.391 335.701 481.695 335.701 481.695L335.715 481.692Z" fill="#EBEBEB"/>
<path d="M333.826 424.303C327.704 427.076 321.718 431.491 316.915 436.113C313.394 426.734 306.017 417.109 300.994 405.03L319.738 386.512C325.322 407.954 328.256 415.294 333.812 424.306C333.812 424.306 328.27 415.292 333.826 424.303Z" fill="#C99077"/>
<path d="M326.195 461.729C325.081 458.612 323.782 454.947 322.278 450.798C325.347 452.462 328.462 457.668 326.195 461.729Z" fill="#EBEBEB"/>
<path d="M367.147 459.2C365.881 464.705 348.515 475.929 333.937 470.809C341.139 457.405 358.53 448.727 367.147 459.2Z" fill="#EBEBEB"/>
<path d="M341.325 423.297C341.387 425.968 340.827 428.721 339.761 431.247C338.687 433.804 337.078 436.051 335.253 438.062C335.245 438.02 335.238 437.978 335.227 437.922C334.187 435.371 333.786 432.428 334.011 429.503C334.222 426.74 335.051 423.547 336.67 421.196C337.507 419.972 339.1 418.844 340.261 419.895C341.109 420.655 341.295 422.085 341.323 423.283C341.323 423.283 341.297 422.099 341.325 423.297ZM325.024 441.693C322.39 442.038 318.84 442.201 316.711 440.528C315.647 439.691 315.264 438.296 315.899 436.834C316.565 435.307 317.962 434.374 319.377 433.944C322.058 433.141 324.995 433.509 327.454 434.369C329.856 435.225 331.993 436.709 333.731 438.627C333.717 438.63 333.703 438.632 333.675 438.637C330.793 440.013 328.078 441.272 325.004 441.668C325.004 441.668 328.097 441.297 325.024 441.693ZM341.139 418.736C340.13 417.803 338.655 417.823 337.401 418.585C334.643 420.243 333.356 424.592 332.829 427.615C332.314 430.621 332.472 433.579 333.268 436.305C331.807 434.873 330.096 433.747 328.168 433.023C325.37 431.977 321.939 431.597 318.895 432.64C316.15 433.571 313.36 436.742 314.51 439.896C315.64 443.026 319.694 443.323 322.478 443.327C325.726 443.334 329.503 442.58 332.631 440.797C330.805 442.243 329.123 443.924 327.576 445.711C327.324 446.003 327.687 446.328 327.932 446.081C329.816 444.233 331.861 442.632 333.989 441.175C335.034 440.464 336.116 439.791 337.21 439.187C338.253 438.622 339.514 438.22 340.484 437.494C340.958 437.148 340.8 436.277 340.208 436.37C339.223 436.533 338.216 437.136 337.283 437.667C340.933 433.644 343.039 427.568 342.556 422.408C342.428 421.055 342.063 419.599 341.123 418.725C341.123 418.725 342.08 419.61 341.139 418.736Z" fill="#EBEBEB"/>
<path d="M341.44 440.856C336.88 442.97 332.857 446.856 330.024 451.31C329.799 451.67 330.301 452.043 330.542 451.695C332.008 449.618 333.722 447.714 335.599 446.071C337.502 444.408 339.546 443.126 341.697 441.954C341.895 441.846 342.129 441.616 342.094 441.346C342.077 441.248 342.075 441.161 342.03 441.068C341.921 440.87 341.655 440.759 341.426 440.858C341.426 440.858 341.669 440.757 341.44 440.856Z" fill="#EBEBEB"/>
<path d="M345.787 445.417C341.034 447.029 336.432 450.035 332.514 453.54C332.053 453.957 332.455 454.739 332.947 454.331C334.944 452.71 337.056 451.241 339.228 449.95C341.452 448.621 343.751 447.625 346.092 446.623C346.831 446.301 346.55 445.149 345.798 445.4C345.798 445.4 346.539 445.165 345.787 445.417Z" fill="#EBEBEB"/>
<path d="M349.456 449.598C349.456 449.598 349.356 449.529 349.306 449.495C349.141 449.38 348.907 449.451 348.737 449.554C347.581 450.212 346.371 450.735 345.217 451.408C344.063 452.08 342.949 452.817 341.846 453.611C339.677 455.162 337.67 456.887 335.776 458.838C335.41 459.223 335.893 459.89 336.275 459.516C338.213 457.731 340.245 456.06 342.368 454.575C343.397 453.852 344.437 453.186 345.511 452.557C346.691 451.866 347.888 451.113 349.134 450.627C349.337 450.547 349.478 450.362 349.54 450.148C349.561 450.101 349.565 450.042 349.585 449.995C349.625 449.814 349.543 449.684 349.427 449.603C349.427 449.603 349.572 449.679 349.456 449.598Z" fill="#EBEBEB"/>
<path d="M374.734 389.314C373.925 383.172 358.432 354.558 358.432 354.558L382.254 337.037L399.922 395.335L374.734 389.314Z" fill="#C99077"/>
<path d="M371.956 427.75L372.264 437.046L456.817 422.597L453.791 415.591L371.956 427.75Z" fill="#EBEBEB"/>
<path d="M372.621 387.461C373.401 397.819 372.831 423.909 371.973 427.761C371.973 427.761 397.752 425.258 421.105 421.942C434.665 420.004 446.219 418.179 452.602 415.997C444.469 414.818 436.833 412.743 428.695 410.436C407.78 404.52 399.612 399.179 398.952 382.953L372.632 387.444L372.621 387.461Z" fill="#52799C"/>
<path d="M384.725 384.209C385.517 382.843 387.38 382.986 388.623 383.568C389.944 384.181 391.068 385.247 392.144 386.205C393.308 387.25 394.411 388.363 395.45 389.53C397.08 391.349 398.571 393.293 399.92 395.333C398.745 395.144 397.534 395.091 396.356 394.802C394.905 394.443 393.5 393.932 392.146 393.296C389.674 392.129 387.088 390.388 385.41 388.201C384.556 387.103 383.967 385.526 384.725 384.209ZM401.575 394.774C401.74 394.384 401.893 394.01 402.041 393.608C402.316 392.852 402.578 392.098 402.869 391.353C403.434 389.925 404.105 388.521 404.858 387.176C405.511 386.008 406.23 384.886 407.046 383.82C407.859 382.739 408.773 381.656 410.039 381.106C411.007 380.679 412.306 380.658 413.156 381.395C414.261 382.349 413.656 383.885 412.993 384.911C411.562 387.111 409.506 389.041 407.523 390.728C405.693 392.287 403.697 393.642 401.592 394.785C401.592 394.785 403.68 393.631 401.575 394.774ZM384.036 388.625C385.77 391.309 388.819 393.303 391.638 394.715C393.048 395.428 394.533 395.983 396.052 396.403C397.252 396.732 398.616 397.091 399.91 397.129C399.258 397.545 398.623 397.973 398.003 398.412C396.999 399.134 396.015 399.897 395.07 400.71C394.565 401.144 393.737 402.053 394.561 402.636C395.236 403.113 395.932 402.444 396.42 401.998C398.28 400.361 400.283 398.874 402.391 397.586C402.784 397.345 403.016 396.929 402.82 396.456C402.81 396.4 402.746 396.367 402.723 396.313C402.718 396.285 402.713 396.257 402.708 396.229C405.491 394.651 408.115 392.739 410.371 390.456C411.467 389.341 412.493 388.152 413.423 386.907C414.294 385.744 415.169 384.349 415.154 382.832C415.12 380.103 412.154 378.847 409.825 379.695C408.395 380.216 407.289 381.361 406.378 382.545C405.383 383.83 404.481 385.23 403.681 386.641C402.881 388.052 402.176 389.504 401.58 391.01C401.268 391.802 400.983 392.589 400.764 393.422C400.702 393.65 400.671 393.887 400.637 394.11C398.886 391.415 396.866 388.925 394.58 386.655C393.36 385.446 392.078 384.219 390.676 383.216C389.419 382.303 387.95 381.672 386.364 381.872C384.934 382.06 383.68 383.013 383.269 384.415C382.84 385.878 383.228 387.375 384.036 388.625Z" fill="#EBEBEB"/>
<path d="M398.171 406.128C398.491 405.798 398.862 405.517 399.215 405.21C399.894 404.616 400.562 404.038 401.242 403.444C402.615 402.253 404.02 401.085 405.412 399.92C406.071 399.373 406.864 400.366 406.254 400.948C404.945 402.171 403.638 403.409 402.31 404.606C401.67 405.179 401.019 405.769 400.379 406.342C399.791 406.877 399.01 407.894 398.139 407.711C397.928 407.66 397.705 407.539 397.692 407.295C397.645 406.768 397.828 406.49 398.185 406.125C398.185 406.125 397.814 406.493 398.171 406.128Z" fill="#EBEBEB"/>
<path d="M401.661 412.793C402.937 411.286 404.275 409.811 405.586 408.342C407.041 406.703 408.529 405 410.196 403.585C410.586 403.243 411.097 403.777 410.848 404.182C409.804 405.852 408.514 407.361 407.272 408.892C406.056 410.403 404.806 411.891 403.538 413.354C403.041 413.916 402.292 415.116 401.39 414.837C400.411 414.527 401.305 413.245 401.664 412.807C401.664 412.807 401.302 413.231 401.661 412.793Z" fill="#EBEBEB"/>
<path d="M411.034 414.367C411.898 413.162 412.748 411.96 413.612 410.755C414.581 409.402 415.555 408.077 416.559 406.761C416.985 406.21 417.781 406.797 417.432 407.378C415.944 409.921 414.387 412.402 412.833 414.898C412.458 415.497 412.053 416.421 411.189 416.28C410.846 416.223 410.636 415.926 410.578 415.589C410.496 415.111 410.778 414.73 411.034 414.367Z" fill="#EBEBEB"/>
<path d="M421.103 421.929C434.038 422.501 447.785 419.46 453.792 415.591C445.661 414.426 436.832 412.73 428.695 410.437C426.013 412.851 423.795 415.779 422.268 419.023C421.823 419.968 421.44 420.945 421.103 421.929Z" fill="#EBEBEB"/>
<path d="M385.592 412.601C383.706 413.836 381.117 413.847 379.168 412.691C374.203 409.737 375.427 401.611 381.601 401.665C387.152 401.71 390.898 409.113 385.59 412.587C385.59 412.587 390.9 409.127 385.592 412.601Z" fill="#EBEBEB"/>
<path d="M236.742 281.727C236.742 281.727 326.992 297.952 329.478 301.1C331.979 304.247 360.611 378.632 360.611 378.632C386.2 385.36 400.677 370.954 400.677 370.954C400.677 370.954 377.776 297.182 369.473 275.1C369.472 275.071 369.44 275.031 369.424 275.003C369.02 273.887 368.459 272.795 367.802 271.739C366.291 269.283 364.176 266.967 361.568 264.771C360.43 263.804 359.195 262.873 357.874 261.948C337.726 247.96 279.195 235.046 246.774 224.549L208.532 255.749L236.742 281.727Z" fill="#263238"/>
<path d="M250.285 268.514C274.258 272.921 298.295 277.224 321.969 283.124C326.942 284.36 331.973 285.82 335.82 289.419C339.666 293.018 341.773 298.15 344.019 302.816C349.012 313.199 353.73 323.744 358.154 334.381C362.558 344.933 366.373 355.653 370.037 366.47C370.495 366.482 370.941 366.523 371.398 366.52C373.904 366.579 376.415 366.495 378.915 366.268C384.003 365.823 389.063 364.751 393.969 363.317C394.881 363.055 395.247 364.46 394.351 364.735C389.462 366.21 384.483 367.206 379.422 367.835C376.927 368.147 374.427 368.388 371.906 368.53C371.522 368.556 371.15 368.553 370.765 368.565C371.05 369.389 371.334 370.213 371.606 371.052C371.785 371.584 370.956 371.797 370.763 371.281C370.446 370.388 370.113 369.495 369.781 368.603C369.153 368.617 368.513 368.66 367.884 368.66C366.641 368.673 365.23 368.954 364.047 368.577C362.936 368.224 362.694 366.339 364.036 366.105C365.308 365.89 366.578 366.275 367.871 366.359C368.244 366.377 368.601 366.381 368.975 366.413C365.679 357.444 362.062 348.583 358.418 339.752C354.074 329.239 349.571 318.708 344.422 308.55C342.029 303.823 339.858 298.795 336.858 294.395C333.665 289.694 329.149 287.184 323.782 285.618C318.328 284.029 312.589 283.303 307.035 282.15C301.192 280.945 295.364 279.753 289.543 278.447C276.362 275.495 263.108 272.734 249.874 270.043C248.859 269.84 249.27 268.311 250.284 268.5C250.284 268.5 249.271 268.326 250.285 268.514Z" fill="#38474F"/>
<path d="M330.929 409.7C326.294 416.301 300.309 426.881 300.309 426.881C300.309 426.881 270.661 360.499 269.05 357.221C267.424 353.944 214.318 297.769 178.051 251.972L223.124 209.225C223.124 209.225 285.214 289.899 305.165 329.239C310.73 340.211 330.929 409.7 330.929 409.7Z" fill="#263238"/>
<path d="M347.956 280.131C355.315 279.446 362.56 277.711 369.424 275.001C369.019 273.885 368.459 272.793 367.802 271.737C366.291 269.28 364.176 266.965 361.568 264.769C357.375 270.185 352.832 275.297 347.956 280.131Z" fill="#38474F"/>
<path d="M277.895 343.583C282.164 346.952 288.22 347.899 293.321 346.01C298.421 344.121 302.384 339.441 303.438 334.105C294.97 336.926 286.349 340.763 277.895 343.583Z" fill="#38474F"/>
<path d="M238.225 217.071C238.225 217.071 258.008 225.829 286.791 238.095L230.309 296.004C212.48 295.647 176.693 249.064 176.693 249.064L238.225 217.086V217.071Z" fill="#263238"/>
<path d="M239.865 226.175C241.911 226.193 243.995 226.567 246.025 226.772C247.997 226.981 249.97 227.191 251.942 227.386C255.974 227.813 259.99 228.227 264.022 228.654C265.318 228.795 265.342 230.837 264.019 230.713C259.918 230.319 255.801 229.912 251.7 229.518L245.541 228.921C243.569 228.726 241.535 228.663 239.579 228.281C238.377 228.048 238.649 226.157 239.851 226.176C239.851 226.176 238.663 226.156 239.865 226.175Z" fill="#38474F"/>
<path d="M209.257 247.371C215.452 258.33 216.825 272.054 212.504 283.926C229.046 298.497 245.652 313.134 259.605 330.286C266.509 338.775 272.721 347.856 277.773 357.57C282.736 367.093 286.462 377.184 290.488 387.12C293.908 395.563 297.551 403.929 302.405 411.599C302.684 411.517 302.977 411.433 303.255 411.337C305.369 410.632 307.475 409.842 309.547 408.997C313.623 407.343 317.572 405.386 321.386 403.197C323.06 402.23 324.635 404.781 322.962 405.762C319.028 408.048 314.955 410.06 310.76 411.824C308.703 412.682 306.612 413.485 304.485 414.191C304.388 414.228 304.304 414.25 304.207 414.288C305.26 415.811 306.356 417.331 307.517 418.788C308.613 420.151 306.288 421.533 305.209 420.198C303.889 418.569 302.68 416.902 301.509 415.188C300.298 415.569 299.083 415.921 297.872 416.144C295.983 416.485 295.165 413.909 297.037 413.226C297.898 412.92 298.791 412.654 299.684 412.402C290.07 397.153 285.24 379.37 277.47 363.139C267.923 343.216 253.563 326.302 238.144 310.685C229.64 302.081 220.73 293.901 211.782 285.781C211.698 285.96 211.644 286.152 211.56 286.331C210.727 288.224 207.941 286.698 208.732 284.823C213.71 273.092 213.601 259.727 207.724 248.325C207.203 247.297 208.693 246.348 209.271 247.37C209.271 247.37 208.679 246.349 209.257 247.371Z" fill="#38474F"/>
<path d="M222.349 236.768C226.243 240.248 230.151 243.714 234.074 247.166C236.042 248.892 238.01 250.603 239.979 252.329C240.963 253.185 241.947 254.055 242.931 254.911C243.944 255.795 244.971 256.922 246.212 257.492C246.797 257.763 247.125 257.778 247.695 257.607C247.766 257.578 247.809 257.507 247.866 257.45C247.795 257.45 247.724 257.364 247.652 257.236C246.739 256.309 245.641 255.51 244.671 254.654C242.703 252.914 240.749 251.16 238.795 249.419C234.801 245.868 230.922 242.174 227.028 238.522C225.716 237.281 227.727 234.914 229.11 236.098C234.045 240.32 238.952 244.541 243.773 248.892C245.071 250.061 246.383 251.231 247.667 252.4C248.722 253.37 250.191 254.369 251.018 255.524C252.459 257.535 250.819 260.031 248.822 260.802C246.297 261.786 244.015 260.131 242.232 258.519C239.836 256.337 237.483 254.098 235.115 251.887C230.265 247.366 225.387 242.887 220.495 238.423C219.311 237.339 221.166 235.713 222.349 236.768Z" fill="#38474F"/>
<path d="M331.045 63.305L330.315 64.0804C328.265 66.2737 324.824 66.3902 322.629 64.3537C320.436 62.303 320.319 58.8617 322.356 56.6673L323.086 55.8919C325.136 53.6985 328.577 53.5821 330.772 55.6186C332.965 57.6693 333.082 61.1105 331.045 63.305Z" fill="#263238"/>
<path d="M343.693 54.3752C335.329 62.4217 345.948 63.2957 329.098 82.2114C328.147 83.2707 317.962 77.5089 317.962 77.5089L327.309 56.2055L343.679 54.3741L343.693 54.3752Z" fill="#C99077"/>
<path d="M327.31 56.2041L325.489 65.909C343.039 70.5155 352.887 60.777 359.724 58.2667L346.524 41.2968L327.312 56.1899L327.31 56.2041Z" fill="#C99077"/>
<path d="M354.017 48.6321C353.709 48.9239 353.453 49.291 353.266 49.6919C353.215 49.8026 353.178 49.9142 353.141 50.0259C352.74 51.1975 353.032 52.4635 353.81 53.3508C354.099 53.7012 354.478 53.9868 354.906 54.1902L357.583 55.5045L361.379 57.3595C361.917 57.6282 362.496 57.7284 363.057 57.6842C363.846 57.6427 364.586 57.3115 365.156 56.7674C365.463 56.4755 365.719 56.1084 365.893 55.6922C366.549 54.1819 366.006 52.4396 364.641 51.5659C364.573 51.518 364.49 51.469 364.407 51.4342L358.036 48.0579C358.036 48.0579 357.912 47.9915 357.842 47.972C356.513 47.3728 355.018 47.6766 354.031 48.6331C354.031 48.6331 355.003 47.6755 354.017 48.6321Z" fill="#C99077"/>
<path d="M374.129 35.6946C374.067 34.0167 372.573 32.7616 370.912 32.9815L356.585 34.8501L343.547 41.7059L348.334 53.1313L361.764 40.9984L371.942 38.5644C373.267 38.248 374.172 37.0422 374.129 35.6946Z" fill="#C99077"/>
<path d="M343.548 41.692L346.212 40.2878L357.349 39.9702L359.802 42.7554L347.678 53.2974L343.548 41.692Z" fill="#263238"/>
<path d="M364.321 62.0414C363.826 63.1203 362.781 63.9009 361.516 63.9929L354.314 64.4881C352.46 64.6079 350.831 63.2427 350.653 61.3988C350.606 60.8661 350.687 60.3572 350.851 59.8831C350.873 59.7846 350.906 59.7156 350.941 59.6324C350.975 59.5634 351.009 59.4944 351.041 59.4396C351.591 58.3934 352.675 57.6586 353.951 57.6246L361.15 57.358C362.168 57.3334 363.123 57.7618 363.755 58.4953C363.847 58.6022 363.925 58.7081 364.016 58.8293C364.315 59.2377 364.519 59.7534 364.579 60.3014C364.646 60.9357 364.545 61.5288 364.306 62.0546C364.306 62.0546 364.56 61.5157 364.321 62.0414Z" fill="#C99077"/>
<path d="M363.768 58.4955C363.36 58.9801 362.802 59.3677 362.146 59.5478L355.219 61.5366C353.494 62.0379 351.128 61.3474 350.661 58.9671C351.21 57.9209 352.689 57.6588 353.964 57.6247L361.164 57.3582C362.181 57.3336 363.136 57.762 363.768 58.4955Z" fill="#263238"/>
<path d="M360.763 55.626C360.441 56.5031 359.756 57.2532 358.815 57.5981L354.129 59.2527C352.393 59.9105 350.44 59.0504 349.752 57.3402C349.451 56.5742 349.423 55.7998 349.648 55.0728C349.654 55.0016 349.688 54.9184 349.707 54.8626C350.05 53.9012 350.794 53.1268 351.836 52.7751L356.591 51.326C357.398 51.0569 358.251 51.1202 358.985 51.4464C359.749 51.7605 360.375 52.3791 360.715 53.191C361.055 54.0029 361.063 54.8616 360.777 55.6271C360.777 55.6271 361.049 54.8606 360.763 55.626Z" fill="#263238"/>
<path d="M351.113 55.3824C351.113 55.3824 351.045 55.5204 351.026 55.5905C350.991 55.6737 350.97 55.758 350.936 55.8413C350.745 56.485 350.737 57.1709 350.957 57.8595C351.514 59.6171 353.398 60.6294 355.182 60.1039L362.122 58.1304C362.459 58.0266 362.769 57.8923 363.041 57.698C363.567 57.3509 363.975 56.8663 364.216 56.3121C364.558 55.5651 364.621 54.7117 364.34 53.8756C364.175 53.4056 363.933 53.0015 363.601 52.6479C363.349 52.3861 363.065 52.1648 362.749 51.9982C362.047 51.6172 361.199 51.4828 360.383 51.6939L353.795 53.3503L353.372 53.4619C352.323 53.7273 351.511 54.4537 351.084 55.3803C351.084 55.3803 351.539 54.4558 351.113 55.3824Z" fill="#C99077"/>
<path d="M353.87 53.3127L353.447 53.4244C352.397 53.6897 351.585 54.4161 351.159 55.3427C351.125 55.4117 351.092 55.4807 351.072 55.5508C351.037 55.634 351.017 55.7183 350.982 55.8016C351.955 56.9465 353.614 57.3413 355.036 56.6746L357.615 55.4643L363.215 52.8479C363.364 52.7731 363.527 52.6994 363.649 52.594C364.07 52.3107 364.412 51.9498 364.657 51.5389C364.589 51.491 364.507 51.442 364.423 51.4072L358.052 48.0309C358.052 48.0309 357.928 47.9645 357.858 47.945L353.172 50C352.77 51.1716 353.062 52.4376 353.84 53.3249C353.84 53.3249 353.092 52.4255 353.87 53.3127Z" fill="#263238"/>
<path d="M352.619 43.781C352.188 44.1924 351.863 44.7118 351.689 45.3281C351.184 47.1214 352.218 48.986 353.979 49.5457L356.201 50.2399L360.872 51.6735C361.57 51.897 362.288 51.8644 362.934 51.6406C363.403 51.4895 363.822 51.2346 364.177 50.889C364.608 50.4777 364.919 49.943 365.079 49.3256C365.518 47.6561 364.589 45.9138 362.957 45.3493L360.754 44.5851L358.412 43.7676L356.139 42.9839C354.857 42.5312 353.515 42.8892 352.606 43.7657C352.606 43.7657 353.528 42.9045 352.619 43.781Z" fill="#C99077"/>
<path d="M359.958 50.1039C359.776 51.02 359.212 51.865 358.332 52.3574L353.953 54.7069C352.339 55.6313 350.278 55.0778 349.323 53.4909C348.903 52.7875 348.76 52.0188 348.873 51.2692C348.878 51.1981 348.884 51.1127 348.89 51.0416C349.093 50.0412 349.702 49.1568 350.67 48.6422L355.149 46.486C355.907 46.0989 356.757 46.019 357.528 46.2335C358.328 46.4359 359.034 46.946 359.507 47.6963C359.967 48.4455 360.103 49.2995 359.944 50.1029C359.944 50.1029 360.118 49.3005 359.958 50.1039Z" fill="#263238"/>
<path d="M363.541 50.1959C363.289 51.0925 362.658 51.8895 361.739 52.3218L355.179 55.339C353.49 56.129 351.483 55.4223 350.661 53.7737C350.301 53.0319 350.216 52.2532 350.385 51.522C350.39 51.4509 350.411 51.3666 350.43 51.2966C350.703 50.3156 351.395 49.4802 352.399 49.0542L359.045 46.2293C359.827 45.9012 360.686 45.8934 361.438 46.1638C362.22 46.422 362.893 46.9869 363.292 47.7745C363.692 48.548 363.757 49.4109 363.54 50.2101C363.54 50.2101 363.758 49.3967 363.541 50.1959Z" fill="#C99077"/>
<path d="M331.636 57.0829L345.432 44.8342L356.692 44.7689L354.002 50.9624L349.638 52.3262C349.638 52.3262 345.655 66.8765 331.664 57.085C331.664 57.085 345.626 66.8744 331.636 57.0829Z" fill="#263238"/>
<path d="M356.678 44.7678L360.55 50.0182C361.396 51.1536 361.162 52.7667 360.039 53.6274C359.038 54.3969 357.628 54.3208 356.705 53.4657L353.973 50.9602L356.664 44.7667L356.678 44.7678Z" fill="#263238"/>
<path d="M327.31 56.2037L343.534 41.6895L356.816 41.5598L353.656 48.8769L348.501 50.4966C348.501 50.4966 343.864 67.6873 327.297 56.1885C327.297 56.1885 343.877 67.7025 327.31 56.2037Z" fill="#C99077"/>
<path d="M358.423 43.7976L355.096 48.7424L356.228 50.2567L357.725 52.2415C357.803 52.3474 357.895 52.4543 357.974 52.546C358.905 53.5018 360.344 53.766 361.563 53.1413C362.216 52.818 362.684 52.2949 362.959 51.6717C363.333 50.8699 363.347 49.9127 362.924 49.066L360.764 44.6293L358.422 43.8119L358.423 43.7976Z" fill="#263238"/>
<path d="M356.831 41.5608L361.436 47.738C362.437 49.0852 362.167 50.9817 360.848 51.9994C359.664 52.9127 358.011 52.8329 356.912 51.836L353.685 48.879L356.845 41.5619L356.831 41.5608Z" fill="#C99077"/>
<path d="M326.89 55.8875L338.844 67.6875L336.842 72.888L322.76 60.8586L326.89 55.8875Z" fill="#263238"/>
<path d="M214.17 131.145C214.17 131.145 261.219 126.172 290.333 114.687L298.31 148.238L211.644 178.068L214.17 131.145Z" fill="#263238"/>
<path d="M298.309 148.252C324.457 128.316 338.487 83.2808 338.487 83.2808L321.702 63.6087L270.02 131.626L298.323 148.253L298.309 148.252Z" fill="#263238"/>
<mask id="mask4_192_153" style="mask-type:luminance" maskUnits="userSpaceOnUse" x="210" y="55" width="131" height="133">
<path d="M219.265 55.9351L340.188 64.6554L331.365 187.001L210.442 178.281L219.265 55.9351Z" fill="white"/>
</mask>
<g mask="url(#mask4_192_153)">
<mask id="mask5_192_153" style="mask-type:luminance" maskUnits="userSpaceOnUse" x="211" y="63" width="128" height="115">
<path d="M321.381 63.2991L279.922 117.868C250.93 126.66 213.862 130.851 213.862 130.851L211.336 177.773L298.002 147.944C324.151 128.007 338.181 82.9722 338.181 82.9722L321.395 63.3001L321.381 63.2991Z" fill="white"/>
</mask>
<g mask="url(#mask5_192_153)">
<path d="M279.038 167.798C277.698 162.982 275.819 158.3 274.274 153.555C272.696 148.665 271.176 143.765 269.744 138.828C266.899 129.099 264.333 119.275 261.998 109.411C261.649 107.913 259.356 108.377 259.662 109.886C261.682 119.942 264.037 129.922 266.712 139.825C268.009 144.652 269.392 149.456 270.834 154.251C272.31 159.162 273.646 164.235 275.606 168.981C276.398 170.897 279.622 169.814 279.066 167.8C279.066 167.8 279.594 169.812 279.038 167.798Z" fill="#38474F"/>
<path d="M294.491 158.36C293.604 153.806 291.965 149.369 290.421 144.996C288.808 140.404 287.061 135.873 285.168 131.389C281.431 122.525 277.163 113.895 272.328 105.581C271.488 104.148 269.191 105.255 269.985 106.742C274.487 115.103 278.588 123.679 282.143 132.487C283.901 136.861 285.54 141.296 287.034 145.766C288.538 150.293 289.718 154.941 291.369 159.422C292.026 161.214 294.835 160.144 294.477 158.359C294.477 158.359 294.849 160.145 294.491 158.36Z" fill="#38474F"/>
<path d="M320.739 144.593C320.002 142.524 317.916 140.714 316.521 139.041C314.954 137.169 313.385 135.325 311.788 133.48C308.606 129.804 305.351 126.166 302.048 122.596C295.442 115.441 288.591 108.512 281.524 101.81C280.213 100.557 278.077 102.42 279.399 103.716C286.36 110.51 293.133 117.52 299.693 124.714C302.886 128.219 306.033 131.778 309.119 135.39C310.702 137.234 312.269 139.106 313.821 140.977C315.294 142.756 316.703 145.232 318.676 146.432C319.963 147.226 321.176 145.869 320.724 144.606C320.724 144.606 321.191 145.856 320.739 144.593Z" fill="#38474F"/>
<path d="M332.384 126.844C325.657 120.781 318.321 115.419 310.979 110.156C303.541 104.829 295.942 99.7479 288.134 94.9806C286.709 94.1199 285.357 96.2104 286.734 97.1533C294.173 102.266 301.563 107.461 308.811 112.845C316.059 118.23 323.009 123.98 330.259 129.336C331.739 130.429 333.795 128.104 332.398 126.845C332.398 126.845 333.78 128.103 332.384 126.844Z" fill="#38474F"/>
<path d="M345.399 118.499C344.306 116.404 342.06 115.04 340.262 113.595C338.274 112.007 336.316 110.408 334.359 108.793C330.499 105.598 326.703 102.321 322.955 98.9762C315.472 92.2874 308.207 85.3428 301.172 78.2001C299.559 76.568 296.902 78.9075 298.498 80.5813C305.473 87.9627 312.712 95.0629 320.213 101.896C323.836 105.189 327.507 108.428 331.239 111.6C333.166 113.241 335.121 114.883 337.079 116.483C338.956 118.02 340.973 120.196 343.39 120.785C344.711 121.109 346.062 119.819 345.372 118.482C345.372 118.482 346.09 119.835 345.399 118.499Z" fill="#38474F"/>
<path d="M349.048 102.404C347.504 100.62 345.519 99.1897 343.758 97.6327C342.064 96.1377 340.371 94.6285 338.709 93.0928C335.288 89.9575 331.932 86.7267 328.666 83.431C322.12 76.8384 315.912 69.927 310.007 62.7658C308.601 61.0484 306.062 63.3393 307.44 65.0545C313.347 72.3733 319.589 79.4158 326.138 86.1659C329.372 89.5023 332.67 92.7574 336.043 95.9466C337.771 97.5727 339.528 99.1866 341.301 100.773C343.006 102.312 344.685 104.02 346.643 105.22C348.437 106.321 350.463 104.008 349.064 102.391C349.064 102.391 350.448 104.021 349.048 102.404Z" fill="#38474F"/>
</g>
</g>
<path d="M128.341 154.912C128.341 154.912 131.279 168.163 138.311 187.361C138.51 187.903 138.724 188.474 138.938 189.03C147.183 211.166 160.747 240.663 181.357 266.864C184.238 270.544 187.276 274.153 190.429 277.647L259.249 226.214C257.908 224.702 256.596 223.219 255.326 221.721C241.263 205.19 232.534 190.085 227.228 176.949C214.134 144.472 212.166 130.351 212.166 130.351L191.47 133.204L179.346 136.841C179.346 136.841 163.699 141.191 163.328 141.305C161.702 141.804 159.977 142.375 158.179 142.974C149.479 145.869 138.953 149.849 128.341 154.912Z" fill="#EBEBEB"/>
<path d="M139.121 147.777C145.982 162.096 153.696 190.818 153.696 190.818L131.848 212.636L127.139 218.143L122.325 217.816L89.6676 194.808C89.6676 194.808 89.9001 194.415 93.2073 190.504C94.1427 189.378 95.0963 188.278 96.076 187.159C116.494 163.987 127.465 151.933 127.465 151.933C127.465 151.933 137.508 144.413 139.121 147.777Z" fill="#EBEBEB"/>
<path d="M131.851 212.65L127.142 218.157L122.327 217.83L89.6702 194.822C89.6702 194.822 89.9027 194.429 93.2098 190.518C94.1453 189.391 95.0988 188.291 96.0786 187.173L131.851 212.65Z" fill="#52799C"/>
<path d="M129.824 149.905C137.84 143.329 148.081 143.4 158.55 140.819L158.821 155.41L130.737 167.377L129.824 149.89V149.905Z" fill="#EBEBEB"/>
<path d="M267.605 162.541L220.076 177.547C220.076 177.547 210.85 176.744 209.027 173.689C200.518 159.433 203.414 136.533 203.414 136.533L207.357 131.129L260.191 122.581L267.605 162.541Z" fill="#EBEBEB"/>
<path d="M158.552 140.833C158.381 141.547 158.253 142.288 158.181 142.987C157.497 148.678 159.479 154.298 163.345 158.306C164.457 159.475 165.755 160.502 167.167 161.344C168.323 162.043 169.578 162.613 170.89 163.055C180.76 166.379 191.457 161.073 194.781 151.203C196.935 144.799 195.465 138.066 191.457 133.217L179.334 136.854L158.538 140.833H158.552Z" fill="#52799C"/>
<path d="M188.176 119.786L188.13 128.897L188.072 139.374L188.173 144.863C188.284 150.925 183.67 156.007 177.623 156.49C171.534 156.978 166.149 152.6 165.351 146.562L161.141 114.37L188.162 119.788L188.176 119.786Z" fill="#C99077"/>
<path d="M188.157 127.055L188.082 137.505C177.655 140.917 169.57 130.567 166.884 120.328C171.917 118.801 186.141 126.158 188.144 127.071C188.144 127.071 186.153 126.142 188.157 127.055Z" fill="#263238"/>
<path d="M210.201 102.447L211.878 105.562C214.419 110.282 212.649 116.178 207.929 118.719L203.947 120.862C199.227 123.402 193.331 121.633 190.791 116.912L189.114 113.798C186.573 109.077 188.343 103.182 193.063 100.641L197.045 98.4979C201.765 95.9571 207.66 97.7267 210.201 102.447Z" fill="white"/>
<path d="M193.715 114.373L192.843 112.753C191.511 110.278 192.439 107.188 194.913 105.856L196.533 104.984C199.008 103.652 202.098 104.579 203.43 107.054L204.302 108.674C205.634 111.149 204.707 114.239 202.232 115.571L200.612 116.443C198.137 117.775 195.047 116.847 193.715 114.373Z" fill="#D9DADE"/>
<path d="M206.469 104.747L207.889 107.384C210.057 111.411 208.547 116.441 204.52 118.609L201.882 120.028C197.855 122.196 192.825 120.686 190.657 116.659L189.238 114.022C187.07 109.994 188.58 104.965 192.607 102.797L195.245 101.377C199.272 99.2095 204.302 100.719 206.469 104.747Z" fill="#D9DADE"/>
<path d="M206.469 104.747L207.889 107.384C210.057 111.411 208.547 116.441 204.52 118.609L201.882 120.028C197.855 122.196 192.825 120.686 190.657 116.659L189.238 114.022C187.07 109.994 188.58 104.965 192.607 102.797L195.245 101.377C199.272 99.2095 204.302 100.719 206.469 104.747Z" stroke="#263238" stroke-width="0.25"/>
<path d="M193.226 83.5468C190.634 81.425 187.36 80.4466 183.871 80.3407C174.975 80.0393 164.63 85.366 160.226 91.7448C153.786 101.078 155.674 112.345 161.87 120.806C164.7 124.709 168.466 128.028 172.739 130.282C180.241 134.224 189.963 135.189 196.848 130.241C201.828 126.681 204.566 120.542 205.009 114.429C205.773 104.099 201.463 90.317 193.213 83.5626C193.213 83.5626 201.475 90.3012 193.226 83.5468Z" fill="#C99077"/>
<path d="M162.58 110.136C172.324 109.95 160.909 94.9804 160.909 94.9804C160.909 94.9804 182.885 99.2695 177.551 84.7177L171.901 81.1325C171.901 81.1325 141.9 89.0632 157.504 117.025L162.579 116.097L162.58 110.136Z" fill="#263238"/>
<path d="M196.362 102.363C196.89 103.55 196.572 104.88 195.638 105.364C194.703 105.833 193.516 105.269 192.988 104.082C192.461 102.895 192.778 101.565 193.712 101.081C194.648 100.612 195.834 101.176 196.362 102.363Z" fill="#263238"/>
<path d="M181.677 107.785C182.205 108.972 181.888 110.302 180.954 110.786C180.018 111.255 178.832 110.691 178.304 109.504C177.776 108.317 178.093 106.987 179.027 106.503C179.963 106.034 181.15 106.598 181.677 107.785Z" fill="#263238"/>
<path d="M194.051 108.464C192.102 105.822 190.038 103.293 187.945 100.768C187.743 100.519 187.343 100.781 187.533 101.046C189.069 103.235 190.614 105.379 192.257 107.498C193.053 108.525 194.068 109.583 194.432 110.847C194.743 111.901 194.243 112.894 193.606 113.701C193.443 113.907 193.586 114.264 193.869 114.231C194.875 114.112 195.51 113.046 195.543 112.109C195.585 110.754 194.835 109.507 194.049 108.45C194.049 108.45 194.836 109.521 194.051 108.464Z" fill="#263238"/>
<path d="M166.289 121.374L159.482 115.771L160.075 114.71C160.802 113.203 161.641 111.668 162.58 110.135C166.454 114.849 166.289 121.374 166.289 121.374Z" fill="#263238"/>
<path d="M177.551 84.7174C191.474 89.3957 193.226 83.545 193.226 83.545L198.551 89.61C206.689 81.039 193.334 58.8728 180.109 74.736C175.045 62.2347 154.879 73.918 154.804 90.7017C140.809 91.2596 133.985 112.932 159.468 120.039C159.468 120.039 149.112 94.5609 162.337 87.8462C168.056 84.946 177.566 84.7157 177.566 84.7157L177.551 84.7174Z" fill="#263238"/>
<path d="M156.549 113.806C154.323 113.436 151.77 114.197 150.62 116.142C149.662 117.763 149.862 119.822 150.46 121.604C151.233 123.897 152.647 126.028 154.646 127.387C156.644 128.745 159.264 129.284 161.578 128.566C163.89 127.834 165.787 125.772 166.078 123.368C166.611 118.752 160.55 114.483 156.551 113.82C156.551 113.82 160.548 114.469 156.549 113.806Z" fill="#C99077"/>
<path d="M162.911 122.319C161.826 121.398 160.481 120.71 159.074 120.473C158.429 120.363 157.775 120.296 157.12 120.345C156.464 120.379 155.81 120.556 155.16 120.647C154.736 120.712 154.763 121.427 155.207 121.417C155.508 121.411 155.782 121.421 156.061 121.475C156.356 121.54 156.626 121.638 156.923 121.718C157.206 121.799 157.506 121.908 157.79 122.003C157.924 122.045 158.06 122.101 158.196 122.157C158.331 122.212 158.524 122.262 158.636 122.363C158.606 122.352 158.575 122.327 158.545 122.317C158.591 122.34 158.636 122.363 158.682 122.387C158.804 122.444 158.913 122.517 159.033 122.561C159.109 122.595 159.183 122.629 159.245 122.665C159.245 122.665 159.245 122.665 159.259 122.663C159.545 122.773 159.814 122.986 160.063 123.143C160.577 123.485 161.08 123.842 161.546 124.261C161.755 124.452 162.176 124.502 162.458 124.455C162.739 124.407 163.062 124.211 163.22 123.963C163.595 123.373 163.432 122.732 162.922 122.303C162.922 122.303 163.421 122.747 162.911 122.319Z" fill="#263238"/>
<path d="M196.517 88.4423C201.127 91.9777 188.374 95.6351 188.077 91.778C187.852 88.8891 194.59 86.9603 196.517 88.4423Z" fill="#263238"/>
<path d="M168.493 102.185C167.599 99.7192 173.335 96.9607 175.164 97.2478C180.312 98.0342 170.217 106.936 168.493 102.185Z" fill="#263238"/>
<path d="M181.389 117.514C181.601 116.628 189.353 116.604 190.157 117.572C190.66 118.188 189.012 121.384 185.699 121.301C182.962 121.235 181.152 118.548 181.389 117.514Z" fill="white"/>
<path d="M164.308 113.839L159.837 102.785C158.65 99.8509 160.069 96.5057 163.002 95.3191L197.54 81.3497C200.473 80.1631 203.818 81.5816 205.005 84.5152L209.476 95.5693C210.663 98.5029 209.244 101.848 206.311 103.035L171.773 117.004C168.84 118.191 165.494 116.772 164.308 113.839Z" fill="white"/>
<path d="M172.039 110.711L167.568 99.6573C166.381 96.7237 167.8 93.3785 170.733 92.1919L197.536 81.3512C200.469 80.1646 203.814 81.5831 205.001 84.5167L209.472 95.5708C210.659 98.5044 209.24 101.85 206.307 103.036L179.504 113.877C176.571 115.063 173.226 113.645 172.039 110.711Z" stroke="#263238" stroke-width="0.25"/>
<path d="M173.932 108.73L170.301 99.752C169.338 97.373 170.489 94.6602 172.868 93.698L197.647 83.6755C200.026 82.7133 202.739 83.8636 203.701 86.2426L207.332 95.2207C208.294 97.5997 207.144 100.313 204.765 101.275L179.986 111.297C177.607 112.259 174.894 111.109 173.932 108.73Z" fill="#DBDBDB"/>
<path d="M201.821 96.5212L179.537 94.3794" stroke="#263238" stroke-width="0.25"/>
<path d="M192.696 99.4049L182.774 98.4487" stroke="#263238" stroke-width="0.25"/>
<path d="M150.92 108.819L154.901 106.676C159.623 104.134 165.516 105.903 168.058 110.625L169.727 113.727C172.269 118.45 170.501 124.342 165.778 126.884L161.797 129.027C157.075 131.569 151.182 129.8 148.64 125.078L146.97 121.976C144.429 117.253 146.197 111.361 150.92 108.819Z" fill="white"/>
<path d="M151.572 122.548L150.7 120.928C149.368 118.453 150.295 115.362 152.77 114.03L154.39 113.158C156.865 111.826 159.955 112.754 161.287 115.229L162.159 116.849C163.491 119.323 162.564 122.414 160.089 123.746L158.469 124.618C155.994 125.95 152.904 125.022 151.572 122.548Z" fill="#DBDBDB"/>
<path d="M150.456 111.012L153.106 109.585C157.137 107.415 162.16 108.923 164.33 112.955L165.757 115.605C167.927 119.636 166.419 124.659 162.388 126.829L159.738 128.256C155.706 130.426 150.683 128.918 148.513 124.886L147.086 122.236C144.916 118.205 146.424 113.182 150.456 111.012Z" stroke="#263238" stroke-width="0.25"/>
<path d="M203.665 141.29C208.372 146.796 212.722 152.586 216.602 158.705C218.541 161.772 220.396 164.896 222.122 168.091C222.992 169.688 223.847 171.286 224.675 172.897C225.502 174.523 226.5 176.221 226.643 178.075C226.743 179.344 225.231 180.385 224.247 179.259C223.077 177.918 222.535 176.221 221.879 174.595C221.237 172.997 220.567 171.414 219.854 169.845C218.342 166.55 216.687 163.327 214.904 160.174C211.324 153.856 207.274 147.794 202.724 142.117C202.224 141.49 203.137 140.662 203.665 141.276C203.665 141.276 203.137 140.677 203.665 141.29Z" fill="#DBDBDB"/>
<path d="M171.032 208.854C175.411 208.112 179.789 207.542 184.125 206.558C188.633 205.531 193.097 204.261 197.476 202.735C205.92 199.797 214.135 195.989 221.752 191.31C222.422 190.897 222.936 191.981 222.294 192.394C214.549 197.329 206.419 201.494 197.804 204.675C189.431 207.756 180.417 210.409 171.517 211.236C169.991 211.379 169.491 209.125 171.06 208.854C171.06 208.854 169.463 209.125 171.032 208.854Z" fill="#DBDBDB"/>
<path d="M195.806 226.312C198.972 224.301 202.238 222.618 205.276 220.379C208.329 218.14 211.224 215.701 213.934 213.062C219.34 207.784 224.018 201.765 227.812 195.233C228.383 194.263 229.78 195.219 229.253 196.188C225.559 203.035 220.994 209.325 215.617 214.945C212.936 217.74 210.083 220.379 207.059 222.804C204.078 225.2 200.826 227.796 197.417 229.55C195.306 230.634 193.894 227.539 195.806 226.312Z" fill="#DBDBDB"/>
<path d="M140.351 185.704C148.552 177.603 154.143 167.804 154.871 156.122C154.913 155.324 156.126 155.409 156.097 156.208C155.826 165.365 153.145 174.964 147.967 182.723C148.153 182.766 148.324 182.894 148.381 183.151C153.815 208.383 165.853 231.803 182.57 251.686C187.305 257.32 192.426 262.555 197.789 267.589C199.258 268.973 196.947 270.913 195.478 269.615C175.766 252.171 161.574 229.15 152.959 204.632C150.563 197.8 148.709 190.796 147.297 183.707C146.028 185.505 144.601 187.202 143.047 188.757C141.192 190.611 138.482 187.559 140.336 185.719C140.336 185.719 138.497 187.544 140.351 185.704Z" fill="#DBDBDB"/>
<path d="M181.343 266.877C184.224 270.557 187.248 274.151 190.414 277.66L259.234 226.227C257.879 224.715 256.581 223.232 255.312 221.734L181.343 266.877Z" fill="#52799C"/>
<path d="M267.605 162.542L256.571 166.022L251.926 123.759L260.19 122.581L267.605 162.542Z" fill="#52799C"/>
<path d="M202.953 194.826C202.674 197.228 202.013 199.583 201.044 201.795C199.259 205.879 196.32 209.536 192.336 212.232C182.637 218.819 169.923 217.536 161.718 209.838C160.392 208.613 159.202 207.226 158.161 205.674C154.392 200.113 153.203 193.54 154.336 187.401C155.482 181.146 159.028 175.357 164.703 171.486C175.954 163.858 191.251 166.793 198.877 178.03C202.339 183.158 203.641 189.096 202.935 194.8C202.935 194.8 203.659 189.122 202.953 194.826Z" fill="#385878"/>
<path d="M202.954 194.825C198.454 198.761 192.331 201.601 185.368 202.586C170.921 204.631 157.78 197.991 154.339 187.415C155.484 181.159 159.03 175.371 164.705 171.499C175.957 163.871 191.253 166.806 198.879 178.043C202.342 183.171 203.643 189.109 202.937 194.813C202.937 194.813 203.659 189.122 202.954 194.825Z" fill="#52799C"/>
<path d="M156.559 202.902L159.333 201.026C160.359 200.334 161.75 200.598 162.443 201.623L167.703 209.378C168.396 210.404 169.787 210.668 170.813 209.975L177.253 205.606C178.279 204.914 178.543 203.522 177.851 202.497L165.946 184.95C165.254 183.925 165.518 182.533 166.543 181.841L169.015 180.166C170.04 179.473 170.304 178.082 169.612 177.056L165.644 171.207" stroke="#DBDBDB" stroke-width="0.5"/>
<path d="M188.597 169.415L185.231 171.692C184.206 172.384 183.942 173.776 184.634 174.801L189.383 181.793C190.076 182.818 189.812 184.21 188.786 184.902L183.016 188.816C181.991 189.509 181.726 190.9 182.419 191.926L188.225 200.482C188.918 201.507 188.654 202.899 187.628 203.591L186.09 204.63C185.064 205.323 184.8 206.714 185.492 207.74L189.171 213.169" stroke="#DBDBDB" stroke-width="0.5"/>
<path d="M154.023 189.663L155.757 188.482C156.783 187.789 158.174 188.053 158.867 189.079L160.616 191.669C161.309 192.695 162.7 192.959 163.726 192.266L179.221 181.747C180.247 181.055 180.511 179.663 179.818 178.638L172.667 168.111" stroke="#DBDBDB" stroke-width="0.5"/>
<path d="M182.613 179.452C183.179 180.294 182.966 181.433 182.126 182.013C181.284 182.578 180.144 182.365 179.565 181.525C178.999 180.683 179.212 179.544 180.052 178.964C180.894 178.398 182.033 178.612 182.613 179.452Z" fill="#52799C"/>
<path d="M182.613 179.452C183.179 180.294 182.966 181.433 182.126 182.013C181.284 182.578 180.144 182.365 179.565 181.525C178.999 180.683 179.212 179.544 180.052 178.964C180.894 178.398 182.033 178.612 182.613 179.452Z" stroke="#DBDBDB" stroke-width="0.5"/>
<path d="M172.537 178.084C173.103 178.925 172.89 180.065 172.05 180.645C171.208 181.21 170.069 180.997 169.489 180.157C168.923 179.315 169.136 178.176 169.976 177.596C170.818 177.03 171.958 177.244 172.537 178.084Z" fill="#52799C"/>
<path d="M172.537 178.084C173.103 178.925 172.89 180.065 172.05 180.645C171.208 181.21 170.069 180.997 169.489 180.157C168.923 179.315 169.136 178.176 169.976 177.596C170.818 177.03 171.958 177.244 172.537 178.084Z" stroke="#DBDBDB" stroke-width="0.5"/>
<path d="M170.324 187.79C170.89 188.631 170.676 189.771 169.837 190.351C168.995 190.916 167.855 190.703 167.275 189.863C166.71 189.021 166.923 187.882 167.763 187.302C168.605 186.736 169.744 186.95 170.324 187.79Z" fill="#52799C"/>
<path d="M170.324 187.79C170.89 188.631 170.676 189.771 169.837 190.351C168.995 190.916 167.855 190.703 167.275 189.863C166.71 189.021 166.923 187.882 167.763 187.302C168.605 186.736 169.744 186.95 170.324 187.79Z" stroke="#DBDBDB" stroke-width="0.5"/>
<path d="M159.089 186.369C159.654 187.211 159.441 188.35 158.601 188.93C157.759 189.496 156.62 189.282 156.04 188.442C155.46 187.603 155.688 186.461 156.527 185.881C157.369 185.316 158.509 185.529 159.089 186.369Z" fill="#52799C"/>
<path d="M159.089 186.369C159.654 187.211 159.441 188.35 158.601 188.93C157.759 189.496 156.62 189.282 156.04 188.442C155.46 187.603 155.688 186.461 156.527 185.881C157.369 185.316 158.509 185.529 159.089 186.369Z" stroke="#DBDBDB" stroke-width="0.5"/>
<path d="M170.054 210.011C170.62 210.853 170.407 211.993 169.567 212.572C168.727 213.152 167.586 212.925 167.006 212.085C166.426 211.245 166.653 210.104 167.493 209.524C168.335 208.958 169.475 209.171 170.054 210.011Z" fill="#385878"/>
<path d="M170.054 210.011C170.62 210.853 170.407 211.993 169.567 212.572C168.727 213.152 167.586 212.925 167.006 212.085C166.426 211.245 166.653 210.104 167.493 209.524C168.335 208.958 169.475 209.171 170.054 210.011Z" stroke="#DBDBDB" stroke-width="0.5"/>
<path d="M180.557 202.892C181.122 203.734 180.909 204.873 180.069 205.453C179.227 206.019 178.088 205.805 177.508 204.965C176.928 204.125 177.156 202.984 177.996 202.404C178.838 201.839 179.977 202.052 180.557 202.892Z" fill="#385878"/>
<path d="M180.557 202.892C181.122 203.734 180.909 204.873 180.069 205.453C179.227 206.019 178.088 205.805 177.508 204.965C176.928 204.125 177.156 202.984 177.996 202.404C178.838 201.839 179.977 202.052 180.557 202.892Z" stroke="#DBDBDB" stroke-width="0.5"/>
<path d="M182.951 188.869C183.517 189.71 183.304 190.85 182.464 191.43C181.624 192.009 180.483 191.782 179.903 190.942C179.337 190.1 179.55 188.961 180.39 188.381C181.23 187.801 182.372 188.029 182.951 188.869Z" fill="#52799C"/>
<path d="M182.951 188.869C183.517 189.71 183.304 190.85 182.464 191.43C181.624 192.009 180.483 191.782 179.903 190.942C179.337 190.1 179.55 188.961 180.39 188.381C181.23 187.801 182.372 188.029 182.951 188.869Z" stroke="#DBDBDB" stroke-width="0.5"/>
<path d="M190.371 201.086C190.937 201.928 190.723 203.068 189.883 203.648C189.042 204.213 187.902 204 187.322 203.16C186.757 202.318 186.97 201.179 187.81 200.599C188.652 200.033 189.791 200.247 190.371 201.086Z" fill="#385878"/>
<path d="M190.371 201.086C190.937 201.928 190.723 203.068 189.883 203.648C189.042 204.213 187.902 204 187.322 203.16C186.757 202.318 186.97 201.179 187.81 200.599C188.652 200.033 189.791 200.247 190.371 201.086Z" stroke="#DBDBDB" stroke-width="0.5"/>
<path d="M192.257 182.553C192.823 183.394 192.609 184.534 191.77 185.114C190.93 185.694 189.788 185.466 189.208 184.626C188.643 183.784 188.856 182.645 189.696 182.065C190.536 181.485 191.677 181.713 192.257 182.553Z" fill="#52799C"/>
<path d="M192.257 182.553C192.823 183.394 192.609 184.534 191.77 185.114C190.93 185.694 189.788 185.466 189.208 184.626C188.643 183.784 188.856 182.645 189.696 182.065C190.536 181.485 191.677 181.713 192.257 182.553Z" stroke="#DBDBDB" stroke-width="0.5"/>
<path d="M194.703 173.476L194.283 173.766C192.838 174.748 192.454 176.718 193.438 178.178L197.571 184.277C198.554 185.723 198.172 187.707 196.726 188.69L193.981 190.562C192.535 191.544 192.151 193.515 193.136 194.974L199.087 203.741" stroke="#DBDBDB" stroke-width="0.5"/>
<path d="M193.939 191.591C194.505 192.433 194.292 193.573 193.452 194.152C192.61 194.718 191.471 194.505 190.891 193.665C190.325 192.823 190.538 191.684 191.378 191.104C192.22 190.538 193.359 190.751 193.939 191.591Z" fill="#52799C"/>
<path d="M193.939 191.591C194.505 192.433 194.292 193.573 193.452 194.152C192.61 194.718 191.471 194.505 190.891 193.665C190.325 192.823 190.538 191.684 191.378 191.104C192.22 190.538 193.359 190.751 193.939 191.591Z" stroke="#DBDBDB" stroke-width="0.5"/>
<path d="M211.345 177.058C210.477 176.72 209.621 176.582 208.801 176.482C207.145 176.284 205.537 176.324 203.941 176.449C202.031 176.59 200.151 176.841 198.282 177.178C198.496 177.465 198.693 177.739 198.894 178.042C199.058 178.278 199.207 178.516 199.353 178.741C200.927 178.561 202.48 178.442 204.03 178.396C205.551 178.353 207.084 178.396 208.499 178.628C209.207 178.743 209.907 178.904 210.475 179.155C211.058 179.403 211.398 179.773 211.477 180.021C211.515 180.29 211.433 180.733 211.118 181.253C210.803 181.773 210.316 182.303 209.821 182.776C208.797 183.786 207.596 184.662 206.344 185.487C205.183 186.242 203.986 186.944 202.769 187.606C201.309 188.389 199.828 189.117 198.326 189.805C195.573 191.117 192.73 192.297 189.874 193.393C187.022 194.516 184.148 195.586 181.238 196.603C175.447 198.632 169.532 200.406 163.564 201.697C161.241 202.184 158.885 202.633 156.547 202.906C155.911 202.996 155.257 203.059 154.602 203.109C153.107 203.234 151.626 203.256 150.239 203.121C149.553 203.06 148.871 202.926 148.341 202.742C147.779 202.533 147.511 202.269 147.45 202.147C147.392 202.04 147.405 201.621 147.688 201.077C147.945 200.551 148.385 199.998 148.86 199.485C149.819 198.427 150.98 197.47 152.178 196.566C152.818 196.101 153.472 195.634 154.142 195.179C154.024 194.346 153.949 193.507 153.93 192.659C152.862 193.257 151.814 193.895 150.788 194.588C149.462 195.496 148.156 196.444 146.942 197.639C146.334 198.229 145.748 198.873 145.247 199.708C144.782 200.494 144.276 201.704 144.69 203.1C145.186 204.47 146.321 205.16 147.167 205.544C148.073 205.934 148.948 206.113 149.791 206.268C151.499 206.53 153.131 206.558 154.755 206.53C156.046 206.492 157.302 206.415 158.565 206.279C160.484 206.094 162.39 205.824 164.289 205.498C170.529 204.399 176.641 202.698 182.625 200.699C188.604 198.672 194.405 196.093 199.95 193.033C201.018 192.435 202.082 191.809 203.113 191.159C204.783 190.13 206.414 189.035 207.989 187.847C209.277 186.873 210.545 185.858 211.693 184.6C212.252 183.974 212.806 183.305 213.263 182.462C213.697 181.666 214.108 180.499 213.684 179.233C213.192 177.992 212.156 177.39 211.317 177.062C211.317 177.062 212.184 177.386 211.345 177.058Z" fill="#263238"/>
<path d="M169.529 232.255L200.647 215.477L163.07 214.298L160.334 232.634L169.529 232.255Z" fill="#C99077"/>
<path d="M167.462 217.247L162.294 215.947C160.77 215.558 160.009 213.851 160.763 212.462L160.992 212.041C162.422 209.418 165.791 208.596 168.258 210.249C169.915 211.368 170.771 213.35 170.43 215.315C170.192 216.688 168.833 217.572 167.476 217.245C167.476 217.245 168.819 217.574 167.462 217.247Z" fill="#C99077"/>
<path d="M177.406 216.964L200.649 215.49L200.991 214.851C202.332 212.314 204.712 210.507 207.509 209.91C207.955 209.804 208.276 209.427 208.315 208.989C208.319 208.916 208.309 208.846 208.313 208.773C208.094 206.917 206.599 205.515 204.806 205.366C204.499 205.337 204.201 205.365 203.89 205.409L202.481 205.738L202.34 205.758C199.917 206.346 197.94 208.052 197.029 210.37L178.042 216.774L177.422 216.977L177.406 216.964Z" fill="#C99077"/>
<path d="M194.539 214.972L194.881 214.333C196.224 211.81 198.604 210.003 201.399 209.392C201.915 209.275 202.265 208.794 202.205 208.269C201.956 206.101 199.939 204.571 197.782 204.905L196.234 205.268C193.809 205.842 191.832 207.548 190.921 209.866L171.314 216.473L194.558 214.998L194.539 214.972Z" fill="#C99077"/>
<path d="M203.081 207.743C203.084 207.353 202.473 207.31 202.398 207.695C202.251 208.494 201.306 209.247 200.626 209.631C199.853 210.072 198.965 210.313 198.17 210.699C196.644 211.419 195.658 212.697 194.547 213.906C192.25 216.406 188.947 217.291 185.817 218.282C185.417 218.41 185.515 219.102 185.967 219.038C187.713 218.748 189.464 218.399 191.115 217.748C192.82 217.074 194.298 216.116 195.514 214.734C196.134 214.027 196.702 213.255 197.405 212.623C198.16 211.954 199.078 211.622 199.995 211.277C200.828 210.957 201.625 210.585 202.29 209.987C202.94 209.39 203.102 208.604 203.097 207.755C203.097 207.755 203.086 208.592 203.081 207.743Z" fill="#263238"/>
<path d="M159.812 220.391L164.788 238.861C164.788 238.861 111.468 254.804 89.173 238.037C73.4711 226.228 83.7848 206.272 91.8845 196.324L122.325 217.817L159.812 220.391Z" fill="#263238"/>
<mask id="mask6_192_153" style="mask-type:luminance" maskUnits="userSpaceOnUse" x="77" y="186" width="89" height="67">
<path d="M77.1826 198.34L157.681 186.949L165.275 240.614L84.777 252.006L77.1826 198.34Z" fill="white"/>
</mask>
<g mask="url(#mask6_192_153)">
<mask id="mask7_192_153" style="mask-type:luminance" maskUnits="userSpaceOnUse" x="80" y="196" width="85" height="50">
<path d="M159.569 220.361L164.545 238.83C164.545 238.83 111.226 254.774 88.9304 238.007C73.2285 226.198 83.5421 206.242 91.6418 196.294L122.082 217.786L159.569 220.361Z" fill="white"/>
</mask>
<g mask="url(#mask7_192_153)">
<path d="M157.703 242.996C157.084 239.641 156.493 236.282 155.888 232.924C154.679 226.21 153.427 219.501 152.359 212.767C152.123 211.302 149.911 211.86 150.131 213.312C151.159 220.067 151.993 226.878 152.88 233.653C153.317 237.048 153.783 240.439 154.206 243.837C154.609 246.992 154.556 250.687 155.807 253.622C156.581 255.428 159.043 254.403 159.19 252.797C159.495 249.657 158.239 246.075 157.688 242.998C157.688 242.998 158.253 246.073 157.703 242.996Z" fill="#38474F"/>
<path d="M141.413 214.518C141.316 212.919 138.912 212.827 138.886 214.473C138.714 226.799 138.73 239.128 138.92 251.461C138.959 254.077 143.045 254.147 142.978 251.535C142.643 239.194 142.121 226.85 141.413 214.518Z" fill="#38474F"/>
<path d="M130.155 214.37C126.072 227.97 124.775 242.314 121.765 256.166C121.471 257.547 123.588 258.155 123.896 256.771C126.989 242.793 131.81 229.117 133.833 214.915C134.135 212.769 130.756 212.412 130.169 214.368C130.169 214.368 130.742 212.414 130.155 214.37Z" fill="#38474F"/>
<path d="M126.013 210.548C123.289 213.282 121.056 216.536 118.722 219.589C116.327 222.723 113.935 225.87 111.54 229.004C106.752 235.271 101.979 241.55 97.4299 247.984C96.5649 249.202 98.5336 250.796 99.5215 249.633C104.637 243.637 109.555 237.467 114.442 231.287L121.801 222.006C124.197 218.987 126.803 216.026 128.784 212.72C129.797 211.021 127.45 209.092 126.026 210.532C126.026 210.532 127.437 209.108 126.013 210.548Z" fill="#38474F"/>
<path d="M119.483 211.531C103.147 213.972 87.451 220.529 74.5741 230.923C72.2338 232.81 75.5072 236.193 77.8314 234.294C90.135 224.226 104.42 216.961 119.994 213.619C121.378 213.322 120.836 211.325 119.481 211.517C119.481 211.517 120.838 211.339 119.483 211.531Z" fill="#38474F"/>
<path d="M113.971 201.693C112.541 201.16 110.994 201.624 109.507 201.806C108.091 201.977 106.688 202.147 105.272 202.319C102.101 202.71 98.9132 203.089 95.7438 203.494C89.5159 204.275 83.286 205.041 77.0861 206.019C75.9583 206.193 76.1656 208.065 77.3114 208.018C83.579 207.722 89.8328 207.226 96.1026 206.742C99.1811 206.508 102.256 206.246 105.318 206C106.855 205.869 108.394 205.752 109.931 205.621C111.426 205.496 113.03 205.629 114.328 204.826C115.638 204.006 115.384 202.213 113.971 201.693Z" fill="#38474F"/>
</g>
</g>
<g opacity="0.7">
<path d="M109.311 328.222V409.037C109.311 413.302 112.363 416.967 116.571 417.723C146.838 423.2 181.283 426.281 217.84 426.281C237.837 426.281 257.192 425.354 275.577 423.628C280.127 423.2 283.593 419.406 283.593 414.842V333.799C283.593 328.621 279.157 324.556 274.008 325.027C256.094 326.667 237.266 327.537 217.84 327.537C182.524 327.537 149.191 324.656 119.68 319.535C114.275 318.594 109.325 322.73 109.325 328.207C109.325 328.207 109.311 322.745 109.311 328.222Z" fill="white"/>
</g>
<path d="M109.311 328.222V409.037C109.311 413.302 112.363 416.967 116.571 417.723C146.838 423.2 181.283 426.281 217.84 426.281C237.837 426.281 257.192 425.354 275.577 423.628C280.127 423.2 283.593 419.406 283.593 414.842V333.799C283.593 328.621 279.157 324.556 274.008 325.027C256.094 326.667 237.266 327.537 217.84 327.537C182.524 327.537 149.191 324.656 119.68 319.535C114.275 318.594 109.325 322.73 109.325 328.207C109.325 328.207 109.311 322.745 109.311 328.222Z" stroke="#D5EBEB" stroke-width="0.25"/>
<g opacity="0.7">
<path d="M117.427 402.862C146.424 408.596 180.014 411.877 215.843 411.877C236.639 411.877 256.664 410.778 275.477 408.739" stroke="#CA775D"/>
</g>
<path d="M230.733 411.676C246.209 411.277 261.2 410.264 275.477 408.724" stroke="#EBEBEB" stroke-width="2" stroke-linecap="round" stroke-linejoin="round"/>
<path d="M117.427 402.862C146.424 408.596 180.014 411.877 215.843 411.877C220.849 411.877 225.813 411.82 230.734 411.691" stroke="#CA775D" stroke-width="2" stroke-linecap="round" stroke-linejoin="round"/>
<g opacity="0.8">
<path d="M180.998 354.937L207.784 369.528C210.409 370.954 210.409 374.734 207.784 376.16L180.998 390.751C178.473 392.121 175.407 390.295 175.407 387.428V358.246C175.407 355.379 178.473 353.553 180.998 354.922C180.998 354.922 178.473 353.567 180.998 354.937Z" fill="#52799C"/>
</g>
<path d="M225.956 411.861C225.956 414.499 228.095 416.639 230.734 416.639C233.372 416.639 235.512 414.499 235.512 411.861C235.512 409.222 233.372 407.083 230.734 407.083C228.095 407.083 225.956 409.222 225.956 411.861Z" fill="#CA775D"/>
<path d="M228.38 411.861C228.38 413.159 229.436 414.215 230.734 414.215C232.032 414.215 233.087 413.159 233.087 411.861C233.087 410.563 232.032 409.508 230.734 409.508C229.436 409.508 228.38 410.563 228.38 411.861Z" fill="#FFFFFD"/>
<path d="M86.6527 53.9824V159.316C38.5571 169.115 6.32227 187.144 6.32227 207.768V102.42C6.32227 81.8099 38.5714 63.767 86.6527 53.9824Z" fill="#D5EBEB"/>
<g opacity="0.7">
<path d="M34.9772 134.499V239.847C16.9057 230.804 6.30811 219.836 6.30811 208.026V102.678C6.30811 114.488 16.8914 125.442 34.9772 134.499Z" fill="#D5EBEB"/>
</g>
</svg>
