<?xml version="1.0" encoding="UTF-8"?> <svg xmlns="http://www.w3.org/2000/svg" width="122" height="40" viewBox="0 0 122 40" fill="none"><g clip-path="url(#clip0_8843_5938)"><path d="M17.6046 36.7303C26.5399 36.7303 33.7834 29.4039 33.7834 20.3664C33.7834 11.3288 26.5399 4.00244 17.6046 4.00244C8.66927 4.00244 1.42578 11.3288 1.42578 20.3664C1.42578 29.4039 8.66927 36.7303 17.6046 36.7303Z" fill="white"></path><path d="M19.3291 21.8766V21.8739C19.2172 21.8818 18.6398 21.916 17.3548 21.916C16.3274 21.916 15.6069 21.8871 15.352 21.8739V21.8766C11.4009 21.7003 8.4539 21.0057 8.4539 20.1718C8.4539 19.3404 11.4035 18.6432 15.352 18.467V21.1846C15.6095 21.2031 16.3508 21.2478 17.373 21.2478C18.6008 21.2478 19.2146 21.1952 19.3291 21.1846V18.4696C23.2723 18.6485 26.2115 19.343 26.2115 20.1744C26.2115 21.0057 23.2697 21.7003 19.3291 21.8792M19.3291 18.1881V15.7572H24.8304V12.0503H9.85328V15.7572H15.3546V18.1881C10.8833 18.3959 7.52271 19.2904 7.52271 20.3638C7.52271 21.4372 10.8859 22.3317 15.3546 22.5422V30.3348H19.3317V22.5422C23.7951 22.3343 27.1505 21.4398 27.1505 20.3664C27.1505 19.2957 23.7951 18.3986 19.3317 18.1907" fill="black"></path><path d="M47.5262 10.063V13.9935H51.303V16.9427H47.5002V22.9226C47.5002 24.2433 48.2207 24.8879 49.2767 24.8879C49.8047 24.8879 50.416 24.7195 50.9154 24.4669L51.8596 27.3872C50.8894 27.7792 50.0831 27.9476 49.0556 27.9765C46.0852 28.0896 44.1422 26.3769 44.1422 22.9226V16.9427H41.5879V13.9935H44.1422V10.4287L47.5262 10.063ZM112.639 13.8093L112.889 15.4089C113.945 13.6962 115.36 13.4436 116.749 13.4436C118.164 13.4436 119.524 14.004 120.274 14.7617L118.747 17.7372C118.052 17.1479 117.415 16.8374 116.304 16.8374C114.528 16.8374 112.889 17.7924 112.889 20.347V27.6476H109.502V13.8041L112.639 13.8093ZM104.339 19.1158C104.118 17.3189 102.729 16.4191 100.786 16.4191C98.955 16.4191 97.4541 17.3189 96.9547 19.1158H104.339ZM96.9001 21.9518C97.1212 23.6645 98.5934 24.901 100.981 24.901C102.23 24.901 103.868 24.4222 104.646 23.6093L106.81 25.7718C105.367 27.2872 103.007 28.0186 100.924 28.0186C96.2056 28.0186 93.399 25.0694 93.399 20.6338C93.399 16.4218 96.2316 13.3884 100.674 13.3884C105.255 13.3884 108.116 16.2534 107.588 21.9518H96.9001ZM81.9646 7.99512V15.6878C83.1872 14.0882 84.6854 13.6094 86.2408 13.6094C90.1269 13.6094 91.8488 16.2771 91.8488 20.3496V27.6503H88.4622V20.3786C88.4622 17.8503 87.1564 16.7848 85.3513 16.7848C83.351 16.7848 81.9646 18.4975 81.9646 20.5759V27.6529H78.578V7.99772L81.9646 7.99512ZM72.9701 9.90512V13.8356H76.7469V16.7848H72.9441V22.7648C72.9441 24.0855 73.6672 24.73 74.7206 24.73C75.2486 24.73 75.8599 24.5616 76.3593 24.3091L77.3035 27.2293C76.3333 27.6213 75.5269 27.7897 74.4995 27.8186C71.5291 27.9318 69.586 26.2165 69.586 22.7648V16.7848H67.0318V13.8356H69.586V10.2708L72.9701 9.90512ZM63.6139 19.1158C63.3928 17.3189 62.0039 16.4191 60.0608 16.4191C58.2297 16.4191 56.7288 17.3189 56.2294 19.1158H63.6139ZM56.1748 21.9518C56.3959 23.6645 57.8681 24.901 60.2559 24.901C61.5045 24.901 63.1431 24.4222 63.9209 23.6093L66.085 25.7718C64.6414 27.2872 62.2822 28.0186 60.1987 28.0186C55.4777 28.0186 52.6737 25.0694 52.6737 20.6338C52.6737 16.4218 55.5063 13.3884 59.9464 13.3884C64.5269 13.3884 67.3855 16.2534 66.8601 21.9518H56.1748Z" fill="white"></path><path d="M83.3786 39V30.1H85.8786V39H83.3786ZM85.4036 39V36.925H90.1786V39H85.4036ZM85.4036 35.475V33.45H89.7161V35.475H85.4036ZM85.4036 32.175V30.1H90.1036V32.175H85.4036ZM95.0995 39.15C94.3162 39.15 93.6328 38.9917 93.0495 38.675C92.4662 38.35 92.012 37.9042 91.687 37.3375C91.362 36.7708 91.1995 36.1208 91.1995 35.3875V30.1H93.6995V35.6125C93.6995 35.8958 93.762 36.1375 93.887 36.3375C94.012 36.5375 94.1787 36.6917 94.387 36.8C94.6037 36.9 94.8412 36.95 95.0995 36.95C95.3662 36.95 95.5995 36.9 95.7995 36.8C96.0078 36.6917 96.1703 36.5417 96.287 36.35C96.4037 36.15 96.462 35.9083 96.462 35.625V30.1H98.9745V35.4C98.9745 36.1333 98.812 36.7833 98.487 37.35C98.1703 37.9083 97.7203 38.35 97.137 38.675C96.562 38.9917 95.8828 39.15 95.0995 39.15ZM102.31 35.45V33.725H103.823C104.165 33.725 104.423 33.6417 104.598 33.475C104.781 33.3083 104.873 33.0875 104.873 32.8125C104.873 32.5375 104.781 32.3167 104.598 32.15C104.423 31.9833 104.165 31.9 103.823 31.9H102.31V30.1H104.223C104.84 30.1 105.381 30.2125 105.848 30.4375C106.315 30.6625 106.681 30.975 106.948 31.375C107.215 31.775 107.348 32.2417 107.348 32.775C107.348 33.3083 107.21 33.775 106.935 34.175C106.669 34.575 106.294 34.8875 105.81 35.1125C105.327 35.3375 104.756 35.45 104.098 35.45H102.31ZM100.285 39V30.1H102.785V39H100.285ZM105.085 39L102.66 35.2L104.91 34.7125L107.923 39H105.085ZM109.151 39V30.325H111.601V39H109.151ZM107.838 34.85V32.85H112.913V34.85H107.838Z" fill="white"></path></g><defs><clipPath id="clip0_8843_5938"><rect width="122" height="40" fill="white"></rect></clipPath></defs></svg> 